<?xml version="1.0" standalone="no"?>
<!DOCTYPE svg PUBLIC "-//W3C//DTD SVG 20010904//EN"
 "http://www.w3.org/TR/2001/REC-SVG-20010904/DTD/svg10.dtd">
<svg version="1.0" xmlns="http://www.w3.org/2000/svg"
 width="500.000000pt" height="500.000000pt" viewBox="0 0 500.000000 500.000000"
 preserveAspectRatio="xMidYMid meet">

<g transform="translate(0.000000,500.000000) scale(0.100000,-0.100000)"
fill="#000000" stroke="none">
<path d="M2370 4340 c-80 -27 -210 -69 -290 -95 -80 -25 -226 -73 -325 -105
-99 -32 -301 -97 -450 -145 -148 -47 -277 -89 -285 -92 -16 -6 122 -53 1355
-455 50 -16 96 -31 104 -34 11 -3 10 -9 -3 -29 -22 -33 -21 -35 19 -35 l35 0
2 -959 3 -959 85 28 c104 35 634 206 1020 330 332 107 359 116 383 137 16 15
17 74 17 965 0 611 -3 948 -10 948 -5 0 -63 -18 -127 -39 -152 -50 -449 -147
-938 -306 -214 -69 -400 -130 -412 -135 -24 -10 -39 2 -45 34 -3 21 -44 6 557
201 182 59 425 138 540 175 116 38 249 81 297 97 49 15 88 30 88 33 0 3 -37
17 -83 31 -45 15 -364 124 -708 243 -344 119 -639 216 -655 215 -16 0 -94 -22
-174 -49z m1630 -589 c21 -41 12 -91 -24 -127 -50 -50 -86 -44 -101 19 -9 34
-1 67 22 94 33 37 86 44 103 14z m-232 -347 l72 -73 0 -240 0 -240 -58 -92
-57 -91 -92 -32 c-51 -17 -100 -39 -110 -49 -15 -14 -19 -40 -23 -134 l-5
-116 -126 -42 c-69 -23 -135 -48 -147 -54 -18 -9 -30 -9 -57 0 l-35 13 0 165
0 165 70 111 70 111 91 29 c50 15 97 34 105 42 10 11 14 44 14 133 0 100 2
119 16 124 20 8 54 -2 54 -15 0 -5 -4 -9 -10 -9 -6 0 -10 -44 -10 -113 0 -84
-4 -118 -15 -134 -9 -13 -49 -33 -107 -52 -90 -31 -94 -33 -125 -84 -18 -28
-48 -77 -68 -107 l-35 -55 2 -159 c2 -117 6 -160 16 -164 9 -3 12 32 12 153 0
173 -2 165 81 295 l48 75 87 25 c68 20 92 32 115 58 29 32 29 34 29 155 -1
115 -2 123 -23 138 -21 16 -31 14 -189 -40 -105 -35 -176 -65 -192 -80 -25
-24 -26 -28 -26 -150 l0 -126 -122 -39 c-68 -22 -129 -42 -135 -44 -10 -3 -13
36 -13 175 l0 179 58 94 57 95 165 53 c594 192 567 182 548 193 -13 7 -194
-48 -622 -190 l-110 -36 -37 -60 c-21 -33 -52 -83 -69 -112 l-31 -52 3 -180
c2 -100 2 -181 1 -181 -1 0 -14 5 -28 12 l-25 11 1 186 0 186 68 105 67 105
95 32 c327 111 646 209 664 205 11 -3 53 -38 93 -78z m23 -11 c13 -16 12 -17
-3 -4 -17 13 -22 21 -14 21 2 0 10 -8 17 -17z m-1101 -68 c18 -21 16 -90 -3
-118 -8 -13 -30 -30 -47 -37 -27 -11 -34 -11 -48 4 -15 15 -14 16 10 16 50 0
91 93 56 128 -21 21 -27 13 -17 -18 9 -23 7 -35 -7 -59 -32 -54 -64 -52 -64 5
0 66 85 121 120 79z m763 -1096 c-4 -4 -57 -24 -118 -44 -166 -55 -157 -44
-153 -186 2 -65 -1 -119 -5 -119 -4 0 -18 7 -31 15 -23 15 -23 19 -19 128 3
63 10 117 17 124 18 18 277 101 298 95 11 -2 16 -8 11 -13z m37 -118 c0 -49 3
-97 6 -105 7 -19 -14 -29 -169 -79 l-108 -35 3 111 3 112 125 42 c69 23 128
42 133 42 4 1 7 -39 7 -88z m500 -1 c41 -41 18 -125 -42 -156 -38 -20 -65 -5
-74 43 -9 49 5 83 45 110 41 28 46 28 71 3z m-1292 -433 c21 -44 -2 -106 -50
-132 -36 -19 -38 -19 -55 -2 -16 16 -16 17 9 17 50 0 91 93 56 128 -20 20 -28
13 -17 -15 12 -32 -4 -79 -33 -94 -26 -14 -38 -3 -38 37 0 26 8 44 30 65 38
39 79 37 98 -4z"/>
<path d="M3947 3720 c5 -34 2 -43 -25 -70 -25 -25 -27 -30 -12 -30 21 0 58 42
66 76 6 23 -10 64 -25 64 -5 0 -7 -18 -4 -40z"/>
<path d="M3947 2073 c4 -33 0 -43 -27 -70 -29 -29 -30 -33 -12 -33 24 0 72 54
72 81 0 24 -17 59 -29 59 -5 0 -7 -17 -4 -37z"/>
<path d="M960 2886 c0 -751 3 -956 13 -964 18 -15 70 -34 332 -117 132 -43
278 -90 325 -105 47 -15 213 -69 370 -120 157 -50 320 -103 363 -118 42 -14
80 -23 83 -20 3 4 6 435 7 959 l2 952 -95 31 c-52 16 -384 126 -738 243 -354
117 -647 213 -653 213 -5 0 -9 -359 -9 -954z m90 875 c0 -5 -7 -11 -15 -15
-10 -3 -15 -19 -15 -46 0 -51 38 -95 71 -85 15 5 20 3 17 -6 -3 -8 -18 -15
-34 -17 -46 -5 -89 46 -89 104 0 34 5 49 19 60 22 16 46 19 46 5z m70 -96 c0
-27 -4 -35 -18 -35 -42 0 -72 79 -46 121 13 22 64 -46 64 -86z m318 -214 c48
-16 195 -64 327 -106 310 -98 308 -97 320 -120 6 -11 31 -51 56 -90 25 -38 51
-80 58 -92 7 -14 11 -99 11 -255 l0 -234 -52 -50 c-114 -109 -170 -132 -65
-26 l67 68 0 231 0 232 -64 98 c-35 54 -70 103 -77 109 -8 6 -95 37 -194 68
-99 32 -254 82 -345 112 -91 30 -171 54 -178 54 -16 0 -16 17 1 23 25 11 49 6
135 -22z m-22 -59 c82 -27 248 -81 369 -121 l220 -71 63 -97 62 -96 0 -232 0
-233 -64 -55 -63 -56 -64 19 c-35 10 -78 23 -96 28 -24 8 -36 7 -53 -5 -20
-14 -21 -22 -18 -127 l3 -112 -70 22 c-38 12 -101 33 -140 46 l-70 23 -3 165
-2 165 59 59 59 59 98 -31 c63 -20 102 -28 108 -22 13 13 12 14 -88 45 -64 19
-85 29 -75 36 21 13 40 11 109 -11 34 -11 67 -20 71 -20 14 0 11 224 -3 243
-13 17 -327 131 -336 122 -3 -3 0 -5 6 -5 9 0 12 -35 12 -118 0 -118 0 -119
-25 -130 -14 -7 -27 -12 -28 -12 -1 0 -1 57 1 127 2 83 7 130 15 135 21 13 -3
21 -29 10 l-25 -12 3 -130 c2 -72 1 -130 -1 -130 -19 0 -268 86 -273 94 -4 6
-8 90 -8 187 l0 177 61 56 c33 31 61 56 63 56 2 0 70 -22 152 -48z m965 -69
c35 -21 55 -73 39 -103 -14 -26 -22 -25 -49 4 -18 19 -22 33 -19 65 4 46 -11
50 -26 8 -14 -40 15 -96 54 -103 33 -7 39 -18 15 -28 -42 -16 -105 45 -105
101 0 70 33 90 91 56z m-537 -859 c13 -5 16 -24 16 -105 0 -87 -2 -99 -19
-109 -11 -5 -22 -10 -25 -10 -8 0 -7 215 1 223 8 8 8 8 27 1z m-114 -273 c52
-17 101 -39 108 -48 8 -11 12 -55 12 -128 l0 -111 -29 -17 c-29 -17 -32 -17
-168 28 -75 26 -143 51 -150 57 -15 12 -19 213 -5 222 5 3 68 -14 140 -37
l131 -42 3 -115 c2 -94 6 -115 18 -115 20 0 28 226 8 243 -7 5 -68 28 -135 50
-143 47 -154 53 -128 62 20 7 30 4 195 -49z m-667 -73 c48 -25 77 -80 62 -115
-5 -10 -9 -24 -11 -32 -8 -39 -55 -35 -96 10 -35 37 -39 98 -8 129 23 23 25
24 53 8z m1291 -427 c3 -5 -1 -11 -9 -15 -10 -3 -15 -19 -15 -46 0 -48 38 -95
71 -87 10 3 19 1 19 -4 0 -13 -33 -27 -50 -20 -56 22 -86 73 -75 128 7 39 45
67 59 44z m55 -37 c12 -15 21 -41 21 -60 0 -29 -3 -34 -23 -34 -35 0 -65 59
-49 94 15 33 25 33 51 0z"/>
<path d="M1029 2086 c-21 -46 16 -116 62 -116 19 0 18 3 -11 30 -28 26 -32 35
-28 70 4 45 -7 52 -23 16z"/>
</g>
</svg>
